<?xml version="1.0" encoding="us-ascii" standalone="no"?><svg xmlns="http://www.w3.org/2000/svg" xmlns:xlink="http://www.w3.org/1999/xlink" contentStyleType="text/css" height="2115px" preserveAspectRatio="none" style="width:1152px;height:2115px;background:#FFFFFF;" version="1.1" viewBox="0 0 1152 2115" width="1152px" zoomAndPan="magnify"><defs/><g><text fill="#000000" font-family="sans-serif" font-size="14" font-weight="bold" lengthAdjust="spacing" textLength="687" x="234.25" y="28.5352">Vortex Particle Method: Velocity Computation &amp; Poisson Solving Workflow (With AI assistence)</text><rect fill="#A9DCDF" height="1957.0117" style="stroke:#0000FF;stroke-width:1.0;" width="10" x="265.5" y="105.2871"/><rect fill="#A9DCDF" height="29.3105" style="stroke:#0000FF;stroke-width:1.0;" width="10" x="563.5" y="169.9082"/><rect fill="#A9DCDF" height="29.3105" style="stroke:#0000FF;stroke-width:1.0;" width="10" x="563.5" y="406.082"/><rect fill="#A9DCDF" height="29.3105" style="stroke:#0000FF;stroke-width:1.0;" width="10" x="563.5" y="701.5664"/><rect fill="#A9DCDF" height="29.3105" style="stroke:#0000FF;stroke-width:1.0;" width="10" x="563.5" y="1768.8145"/><rect fill="#A9DCDF" height="608.2109" style="stroke:#0000FF;stroke-width:1.0;" width="10" x="652" y="760.1875"/><rect fill="#A9DCDF" height="95.2422" style="stroke:#0000FF;stroke-width:1.0;" width="10" x="902" y="916.4297"/><rect fill="#A9DCDF" height="29.3105" style="stroke:#0000FF;stroke-width:1.0;" width="10" x="989" y="1040.9824"/><rect fill="#A9DCDF" height="29.3105" style="stroke:#0000FF;stroke-width:1.0;" width="10" x="989" y="1099.6035"/><rect fill="#A9DCDF" height="29.3105" style="stroke:#0000FF;stroke-width:1.0;" width="10" x="989" y="1251.1563"/><rect fill="#A9DCDF" height="29.3105" style="stroke:#0000FF;stroke-width:1.0;" width="10" x="1080.5" y="228.5293"/><rect fill="#A9DCDF" height="30" style="stroke:#0000FF;stroke-width:1.0;" width="10" x="1080.5" y="322.4609"/><rect fill="#A9DCDF" height="30" style="stroke:#0000FF;stroke-width:1.0;" width="10" x="1080.5" y="599.9453"/><rect fill="#A9DCDF" height="29.3105" style="stroke:#0000FF;stroke-width:1.0;" width="10" x="1080.5" y="1309.7773"/><rect fill="#A9DCDF" height="29.3105" style="stroke:#0000FF;stroke-width:1.0;" width="10" x="1080.5" y="1499.6406"/><rect fill="#A9DCDF" height="30" style="stroke:#0000FF;stroke-width:1.0;" width="10" x="1080.5" y="1642.8828"/><rect fill="#A9DCDF" height="29.3105" style="stroke:#0000FF;stroke-width:1.0;" width="10" x="1080.5" y="1912.0566"/><rect fill="none" height="270.4844" style="stroke:#000000;stroke-width:1.5;" width="950.5" x="196" y="367.4609"/><rect fill="none" height="219.8633" style="stroke:#000000;stroke-width:1.5;" width="950.5" x="196" y="1461.0195"/><rect fill="none" height="303.7949" style="stroke:#000000;stroke-width:1.5;" width="950.5" x="196" y="1730.1934"/><line style="stroke:#0000FF;stroke-width:0.5;stroke-dasharray:5.0,5.0;" x1="25" x2="25" y1="73.9766" y2="2080.2988"/><line style="stroke:#0000FF;stroke-width:0.5;stroke-dasharray:5.0,5.0;" x1="270" x2="270" y1="73.9766" y2="2080.2988"/><line style="stroke:#0000FF;stroke-width:0.5;stroke-dasharray:5.0,5.0;" x1="568" x2="568" y1="73.9766" y2="2080.2988"/><line style="stroke:#0000FF;stroke-width:0.5;stroke-dasharray:5.0,5.0;" x1="657" x2="657" y1="73.9766" y2="2080.2988"/><line style="stroke:#0000FF;stroke-width:0.5;stroke-dasharray:5.0,5.0;" x1="906.5" x2="906.5" y1="73.9766" y2="2080.2988"/><line style="stroke:#0000FF;stroke-width:0.5;stroke-dasharray:5.0,5.0;" x1="993.5" x2="993.5" y1="73.9766" y2="2080.2988"/><line style="stroke:#0000FF;stroke-width:0.5;stroke-dasharray:5.0,5.0;" x1="1085.5" x2="1085.5" y1="73.9766" y2="2080.2988"/><rect fill="#DAEEF3" height="30.4883" rx="2.5" ry="2.5" style="stroke:#00BFFF;stroke-width:0.5;" width="41" x="5" y="42.4883"/><text fill="#333333" font-family="sans-serif" font-size="14" lengthAdjust="spacing" textLength="27" x="12" y="63.0234">RK4</text><rect fill="#DAEEF3" height="30.4883" rx="2.5" ry="2.5" style="stroke:#00BFFF;stroke-width:0.5;" width="41" x="5" y="2079.2988"/><text fill="#333333" font-family="sans-serif" font-size="14" lengthAdjust="spacing" textLength="27" x="12" y="2099.834">RK4</text><rect fill="#DAEEF3" height="30.4883" rx="2.5" ry="2.5" style="stroke:#00BFFF;stroke-width:0.5;" width="129" x="206" y="42.4883"/><text fill="#333333" font-family="sans-serif" font-size="14" lengthAdjust="spacing" textLength="115" x="213" y="63.0234">ParticleVelocities</text><rect fill="#DAEEF3" height="30.4883" rx="2.5" ry="2.5" style="stroke:#00BFFF;stroke-width:0.5;" width="129" x="206" y="2079.2988"/><text fill="#333333" font-family="sans-serif" font-size="14" lengthAdjust="spacing" textLength="115" x="213" y="2099.834">ParticleVelocities</text><rect fill="#DAEEF3" height="30.4883" rx="2.5" ry="2.5" style="stroke:#00BFFF;stroke-width:0.5;" width="85" x="526" y="42.4883"/><text fill="#333333" font-family="sans-serif" font-size="14" lengthAdjust="spacing" textLength="71" x="533" y="63.0234">ParticleSet</text><rect fill="#DAEEF3" height="30.4883" rx="2.5" ry="2.5" style="stroke:#00BFFF;stroke-width:0.5;" width="85" x="526" y="2079.2988"/><text fill="#333333" font-family="sans-serif" font-size="14" lengthAdjust="spacing" textLength="71" x="533" y="2099.834">ParticleSet</text><rect fill="#DAEEF3" height="30.4883" rx="2.5" ry="2.5" style="stroke:#00BFFF;stroke-width:0.5;" width="72" x="621" y="42.4883"/><text fill="#333333" font-family="sans-serif" font-size="14" lengthAdjust="spacing" textLength="58" x="628" y="63.0234">Hockney</text><rect fill="#DAEEF3" height="30.4883" rx="2.5" ry="2.5" style="stroke:#00BFFF;stroke-width:0.5;" width="72" x="621" y="2079.2988"/><text fill="#333333" font-family="sans-serif" font-size="14" lengthAdjust="spacing" textLength="58" x="628" y="2099.834">Hockney</text><rect fill="#DAEEF3" height="30.4883" rx="2.5" ry="2.5" style="stroke:#00BFFF;stroke-width:0.5;" width="93" x="860.5" y="42.4883"/><text fill="#333333" font-family="sans-serif" font-size="14" lengthAdjust="spacing" textLength="79" x="867.5" y="63.0234">ConvKernel</text><rect fill="#DAEEF3" height="30.4883" rx="2.5" ry="2.5" style="stroke:#00BFFF;stroke-width:0.5;" width="93" x="860.5" y="2079.2988"/><text fill="#333333" font-family="sans-serif" font-size="14" lengthAdjust="spacing" textLength="79" x="867.5" y="2099.834">ConvKernel</text><rect fill="#DAEEF3" height="30.4883" rx="2.5" ry="2.5" style="stroke:#00BFFF;stroke-width:0.5;" width="61" x="963.5" y="42.4883"/><text fill="#333333" font-family="sans-serif" font-size="14" lengthAdjust="spacing" textLength="47" x="970.5" y="63.0234">FFTMD</text><rect fill="#DAEEF3" height="30.4883" rx="2.5" ry="2.5" style="stroke:#00BFFF;stroke-width:0.5;" width="61" x="963.5" y="2079.2988"/><text fill="#333333" font-family="sans-serif" font-size="14" lengthAdjust="spacing" textLength="47" x="970.5" y="2099.834">FFTMD</text><rect fill="#DAEEF3" height="30.4883" rx="2.5" ry="2.5" style="stroke:#00BFFF;stroke-width:0.5;" width="102" x="1034.5" y="42.4883"/><text fill="#333333" font-family="sans-serif" font-size="14" lengthAdjust="spacing" textLength="88" x="1041.5" y="63.0234">RectMDArray</text><rect fill="#DAEEF3" height="30.4883" rx="2.5" ry="2.5" style="stroke:#00BFFF;stroke-width:0.5;" width="102" x="1034.5" y="2079.2988"/><text fill="#333333" font-family="sans-serif" font-size="14" lengthAdjust="spacing" textLength="88" x="1041.5" y="2099.834">RectMDArray</text><rect fill="#A9DCDF" height="1957.0117" style="stroke:#0000FF;stroke-width:1.0;" width="10" x="265.5" y="105.2871"/><rect fill="#A9DCDF" height="29.3105" style="stroke:#0000FF;stroke-width:1.0;" width="10" x="563.5" y="169.9082"/><rect fill="#A9DCDF" height="29.3105" style="stroke:#0000FF;stroke-width:1.0;" width="10" x="563.5" y="406.082"/><rect fill="#A9DCDF" height="29.3105" style="stroke:#0000FF;stroke-width:1.0;" width="10" x="563.5" y="701.5664"/><rect fill="#A9DCDF" height="29.3105" style="stroke:#0000FF;stroke-width:1.0;" width="10" x="563.5" y="1768.8145"/><rect fill="#A9DCDF" height="608.2109" style="stroke:#0000FF;stroke-width:1.0;" width="10" x="652" y="760.1875"/><rect fill="#A9DCDF" height="95.2422" style="stroke:#0000FF;stroke-width:1.0;" width="10" x="902" y="916.4297"/><rect fill="#A9DCDF" height="29.3105" style="stroke:#0000FF;stroke-width:1.0;" width="10" x="989" y="1040.9824"/><rect fill="#A9DCDF" height="29.3105" style="stroke:#0000FF;stroke-width:1.0;" width="10" x="989" y="1099.6035"/><rect fill="#A9DCDF" height="29.3105" style="stroke:#0000FF;stroke-width:1.0;" width="10" x="989" y="1251.1563"/><rect fill="#A9DCDF" height="29.3105" style="stroke:#0000FF;stroke-width:1.0;" width="10" x="1080.5" y="228.5293"/><rect fill="#A9DCDF" height="30" style="stroke:#0000FF;stroke-width:1.0;" width="10" x="1080.5" y="322.4609"/><rect fill="#A9DCDF" height="30" style="stroke:#0000FF;stroke-width:1.0;" width="10" x="1080.5" y="599.9453"/><rect fill="#A9DCDF" height="29.3105" style="stroke:#0000FF;stroke-width:1.0;" width="10" x="1080.5" y="1309.7773"/><rect fill="#A9DCDF" height="29.3105" style="stroke:#0000FF;stroke-width:1.0;" width="10" x="1080.5" y="1499.6406"/><rect fill="#A9DCDF" height="30" style="stroke:#0000FF;stroke-width:1.0;" width="10" x="1080.5" y="1642.8828"/><rect fill="#A9DCDF" height="29.3105" style="stroke:#0000FF;stroke-width:1.0;" width="10" x="1080.5" y="1912.0566"/><polygon fill="#00BFFF" points="253.5,101.2871,263.5,105.2871,253.5,109.2871,257.5,105.2871" style="stroke:#00BFFF;stroke-width:1.0;"/><line style="stroke:#00BFFF;stroke-width:1.0;" x1="25.5" x2="259.5" y1="105.2871" y2="105.2871"/><text fill="#000000" font-family="sans-serif" font-size="13" lengthAdjust="spacing" textLength="221" x="32.5" y="100.5449">operator(a_k, a_time, a_dt, a_state)</text><path d="M158,118.2871 L158,143.2871 L383,143.2871 L383,128.2871 L373,118.2871 L158,118.2871 " fill="#FEFFDD" style="stroke:#181818;stroke-width:0.5;"/><path d="M373,118.2871 L373,128.2871 L383,128.2871 L373,118.2871 " fill="#FEFFDD" style="stroke:#181818;stroke-width:0.5;"/><text fill="#000000" font-family="sans-serif" font-size="13" lengthAdjust="spacing" textLength="204" x="164" y="135.8555">computeDisplacementIncrement</text><polygon fill="#00BFFF" points="551.5,165.9082,561.5,169.9082,551.5,173.9082,555.5,169.9082" style="stroke:#00BFFF;stroke-width:1.0;"/><line style="stroke:#00BFFF;stroke-width:1.0;" x1="275.5" x2="557.5" y1="169.9082" y2="169.9082"/><text fill="#000000" font-family="sans-serif" font-size="13" lengthAdjust="spacing" textLength="38" x="282.5" y="165.166">getH()</text><polygon fill="#00BFFF" points="286.5,195.2188,276.5,199.2188,286.5,203.2188,282.5,199.2188" style="stroke:#00BFFF;stroke-width:1.0;"/><line style="stroke:#00BFFF;stroke-width:1.0;stroke-dasharray:2.0,2.0;" x1="280.5" x2="567.5" y1="199.2188" y2="199.2188"/><text fill="#000000" font-family="sans-serif" font-size="13" lengthAdjust="spacing" textLength="8" x="292.5" y="194.4766">h</text><polygon fill="#00BFFF" points="1068.5,224.5293,1078.5,228.5293,1068.5,232.5293,1072.5,228.5293" style="stroke:#00BFFF;stroke-width:1.0;"/><line style="stroke:#00BFFF;stroke-width:1.0;" x1="275.5" x2="1074.5" y1="228.5293" y2="228.5293"/><text fill="#000000" font-family="sans-serif" font-size="13" lengthAdjust="spacing" textLength="306" x="282.5" y="223.7871">Create vorticity, stream function &amp; velocity grids</text><polygon fill="#00BFFF" points="286.5,253.8398,276.5,257.8398,286.5,261.8398,282.5,257.8398" style="stroke:#00BFFF;stroke-width:1.0;"/><line style="stroke:#00BFFF;stroke-width:1.0;stroke-dasharray:2.0,2.0;" x1="280.5" x2="1084.5" y1="257.8398" y2="257.8398"/><text fill="#000000" font-family="sans-serif" font-size="13" lengthAdjust="spacing" textLength="182" x="292.5" y="253.0977">omega_grid, psi_grid, U_grid</text><path d="M161,270.8398 L161,295.8398 L380,295.8398 L380,280.8398 L370,270.8398 L161,270.8398 " fill="#FCE4D6" style="stroke:#181818;stroke-width:0.5;"/><path d="M370,270.8398 L370,280.8398 L380,280.8398 L370,270.8398 " fill="#FCE4D6" style="stroke:#181818;stroke-width:0.5;"/><text fill="#000000" font-family="sans-serif" font-size="13" lengthAdjust="spacing" textLength="198" x="167" y="288.4082">Step 1: Deposit vorticity to grid</text><polygon fill="#00BFFF" points="1068.5,318.4609,1078.5,322.4609,1068.5,326.4609,1072.5,322.4609" style="stroke:#00BFFF;stroke-width:1.0;"/><line style="stroke:#00BFFF;stroke-width:1.0;" x1="275.5" x2="1074.5" y1="322.4609" y2="322.4609"/><text fill="#000000" font-family="sans-serif" font-size="13" lengthAdjust="spacing" textLength="66" x="282.5" y="317.7188">setVal(0.0)</text><path d="M196,367.4609 L270,367.4609 L270,374.7715 L260,384.7715 L196,384.7715 L196,367.4609 " fill="#EEEEEE" style="stroke:#000000;stroke-width:1.5;"/><rect fill="none" height="270.4844" style="stroke:#000000;stroke-width:1.5;" width="950.5" x="196" y="367.4609"/><text fill="#000000" font-family="sans-serif" font-size="13" font-weight="bold" lengthAdjust="spacing" textLength="29" x="211" y="381.0293">loop</text><text fill="#000000" font-family="sans-serif" font-size="11" font-weight="bold" lengthAdjust="spacing" textLength="169" x="285" y="380.0957">[For each particle k in a_state]</text><polygon fill="#00BFFF" points="551.5,402.082,561.5,406.082,551.5,410.082,555.5,406.082" style="stroke:#00BFFF;stroke-width:1.0;"/><line style="stroke:#00BFFF;stroke-width:1.0;" x1="275.5" x2="557.5" y1="406.082" y2="406.082"/><text fill="#000000" font-family="sans-serif" font-size="13" lengthAdjust="spacing" textLength="82" x="282.5" y="401.3398">getParticle(k)</text><polygon fill="#00BFFF" points="286.5,431.3926,276.5,435.3926,286.5,439.3926,282.5,435.3926" style="stroke:#00BFFF;stroke-width:1.0;"/><line style="stroke:#00BFFF;stroke-width:1.0;stroke-dasharray:2.0,2.0;" x1="280.5" x2="567.5" y1="435.3926" y2="435.3926"/><text fill="#000000" font-family="sans-serif" font-size="13" lengthAdjust="spacing" textLength="217" x="292.5" y="430.6504">Particle with position and strength</text><line style="stroke:#00BFFF;stroke-width:1.0;" x1="275.5" x2="317.5" y1="464.7031" y2="464.7031"/><line style="stroke:#00BFFF;stroke-width:1.0;" x1="317.5" x2="317.5" y1="464.7031" y2="477.7031"/><line style="stroke:#00BFFF;stroke-width:1.0;" x1="276.5" x2="317.5" y1="477.7031" y2="477.7031"/><polygon fill="#00BFFF" points="286.5,473.7031,276.5,477.7031,286.5,481.7031,282.5,477.7031" style="stroke:#00BFFF;stroke-width:1.0;"/><text fill="#000000" font-family="sans-serif" font-size="13" lengthAdjust="spacing" textLength="240" x="282.5" y="459.9609">Transform particle to grid coordinates</text><line style="stroke:#00BFFF;stroke-width:1.0;" x1="275.5" x2="317.5" y1="507.0137" y2="507.0137"/><line style="stroke:#00BFFF;stroke-width:1.0;" x1="317.5" x2="317.5" y1="507.0137" y2="520.0137"/><line style="stroke:#00BFFF;stroke-width:1.0;" x1="276.5" x2="317.5" y1="520.0137" y2="520.0137"/><polygon fill="#00BFFF" points="286.5,516.0137,276.5,520.0137,286.5,524.0137,282.5,520.0137" style="stroke:#00BFFF;stroke-width:1.0;"/><text fill="#000000" font-family="sans-serif" font-size="13" lengthAdjust="spacing" textLength="196" x="282.5" y="502.2715">Calculate interpolation weights</text><path d="M280,533.0137 L280,573.0137 L530,573.0137 L530,543.0137 L520,533.0137 L280,533.0137 " fill="#FEFFDD" style="stroke:#181818;stroke-width:0.5;"/><path d="M520,533.0137 L520,543.0137 L530,543.0137 L520,533.0137 " fill="#FEFFDD" style="stroke:#181818;stroke-width:0.5;"/><text fill="#000000" font-family="sans-serif" font-size="13" lengthAdjust="spacing" textLength="229" x="286" y="550.582">Apply bilinear interpolation weights:</text><text fill="#000000" font-family="sans-serif" font-size="13" lengthAdjust="spacing" textLength="216" x="286" y="565.8926">(1-s&#8320;)(1-s&#8321;), s&#8320;(1-s&#8321;), (1-s&#8320;)s&#8321;, s&#8320;s&#8321;</text><polygon fill="#00BFFF" points="1068.5,595.9453,1078.5,599.9453,1068.5,603.9453,1072.5,599.9453" style="stroke:#00BFFF;stroke-width:1.0;"/><line style="stroke:#00BFFF;stroke-width:1.0;" x1="275.5" x2="1074.5" y1="599.9453" y2="599.9453"/><text fill="#000000" font-family="sans-serif" font-size="13" lengthAdjust="spacing" textLength="284" x="282.5" y="595.2031">Add weighted particle strength to grid points</text><path d="M164,649.9453 L164,674.9453 L377,674.9453 L377,659.9453 L367,649.9453 L164,649.9453 " fill="#FCE4D6" style="stroke:#181818;stroke-width:0.5;"/><path d="M367,649.9453 L367,659.9453 L377,659.9453 L367,649.9453 " fill="#FCE4D6" style="stroke:#181818;stroke-width:0.5;"/><text fill="#000000" font-family="sans-serif" font-size="13" lengthAdjust="spacing" textLength="192" x="170" y="667.5137">Step 2: Solve Poisson equation</text><polygon fill="#00BFFF" points="551.5,697.5664,561.5,701.5664,551.5,705.5664,555.5,701.5664" style="stroke:#00BFFF;stroke-width:1.0;"/><line style="stroke:#00BFFF;stroke-width:1.0;" x1="275.5" x2="557.5" y1="701.5664" y2="701.5664"/><text fill="#000000" font-family="sans-serif" font-size="13" lengthAdjust="spacing" textLength="120" x="282.5" y="696.8242">Access m_hockney</text><polygon fill="#00BFFF" points="286.5,726.877,276.5,730.877,286.5,734.877,282.5,730.877" style="stroke:#00BFFF;stroke-width:1.0;"/><line style="stroke:#00BFFF;stroke-width:1.0;stroke-dasharray:2.0,2.0;" x1="280.5" x2="567.5" y1="730.877" y2="730.877"/><text fill="#000000" font-family="sans-serif" font-size="13" lengthAdjust="spacing" textLength="157" x="292.5" y="726.1348">Return Hockney instance</text><polygon fill="#00BFFF" points="640,756.1875,650,760.1875,640,764.1875,644,760.1875" style="stroke:#00BFFF;stroke-width:1.0;"/><line style="stroke:#00BFFF;stroke-width:1.0;" x1="275.5" x2="646" y1="760.1875" y2="760.1875"/><text fill="#000000" font-family="sans-serif" font-size="13" lengthAdjust="spacing" textLength="138" x="282.5" y="755.4453">convolve(omega_grid)</text><line style="stroke:#00BFFF;stroke-width:1.0;" x1="662" x2="704" y1="789.498" y2="789.498"/><line style="stroke:#00BFFF;stroke-width:1.0;" x1="704" x2="704" y1="789.498" y2="802.498"/><line style="stroke:#00BFFF;stroke-width:1.0;" x1="663" x2="704" y1="802.498" y2="802.498"/><polygon fill="#00BFFF" points="673,798.498,663,802.498,673,806.498,669,802.498" style="stroke:#00BFFF;stroke-width:1.0;"/><text fill="#000000" font-family="sans-serif" font-size="13" lengthAdjust="spacing" textLength="139" x="669" y="784.7559">validateInputDomain()</text><line style="stroke:#00BFFF;stroke-width:1.0;" x1="662" x2="704" y1="831.8086" y2="831.8086"/><line style="stroke:#00BFFF;stroke-width:1.0;" x1="704" x2="704" y1="831.8086" y2="844.8086"/><line style="stroke:#00BFFF;stroke-width:1.0;" x1="663" x2="704" y1="844.8086" y2="844.8086"/><polygon fill="#00BFFF" points="673,840.8086,663,844.8086,673,848.8086,669,844.8086" style="stroke:#00BFFF;stroke-width:1.0;"/><text fill="#000000" font-family="sans-serif" font-size="13" lengthAdjust="spacing" textLength="156" x="669" y="827.0664">createExpandedDomain()</text><line style="stroke:#00BFFF;stroke-width:1.0;" x1="662" x2="704" y1="874.1191" y2="874.1191"/><line style="stroke:#00BFFF;stroke-width:1.0;" x1="704" x2="704" y1="874.1191" y2="887.1191"/><line style="stroke:#00BFFF;stroke-width:1.0;" x1="663" x2="704" y1="887.1191" y2="887.1191"/><polygon fill="#00BFFF" points="673,883.1191,663,887.1191,673,891.1191,669,887.1191" style="stroke:#00BFFF;stroke-width:1.0;"/><text fill="#000000" font-family="sans-serif" font-size="13" lengthAdjust="spacing" textLength="151" x="669" y="869.377">prepareComplexArrays()</text><polygon fill="#00BFFF" points="890,912.4297,900,916.4297,890,920.4297,894,916.4297" style="stroke:#00BFFF;stroke-width:1.0;"/><line style="stroke:#00BFFF;stroke-width:1.0;" x1="662" x2="896" y1="916.4297" y2="916.4297"/><text fill="#000000" font-family="sans-serif" font-size="13" lengthAdjust="spacing" textLength="178" x="669" y="911.6875">getKernel(kernelComplex, h)</text><path d="M821,929.4297 L821,984.4297 L993,984.4297 L993,939.4297 L983,929.4297 L821,929.4297 " fill="#FEFFDD" style="stroke:#181818;stroke-width:0.5;"/><path d="M983,929.4297 L983,939.4297 L993,939.4297 L983,929.4297 " fill="#FEFFDD" style="stroke:#181818;stroke-width:0.5;"/><text fill="#000000" font-family="sans-serif" font-size="13" lengthAdjust="spacing" textLength="151" x="827" y="946.998">Create Green's function:</text><text fill="#000000" font-family="sans-serif" font-size="13" lengthAdjust="spacing" textLength="107" x="827" y="962.3086">ln(r)/4&#960; for r &gt; &#948;</text><text fill="#000000" font-family="sans-serif" font-size="13" lengthAdjust="spacing" textLength="126" x="827" y="977.6191">Polynomial for r &#8804; &#948;</text><polygon fill="#00BFFF" points="673,1007.6719,663,1011.6719,673,1015.6719,669,1011.6719" style="stroke:#00BFFF;stroke-width:1.0;"/><line style="stroke:#00BFFF;stroke-width:1.0;stroke-dasharray:2.0,2.0;" x1="667" x2="906" y1="1011.6719" y2="1011.6719"/><text fill="#000000" font-family="sans-serif" font-size="13" lengthAdjust="spacing" textLength="112" x="679" y="1006.9297">Filled kernel array</text><polygon fill="#00BFFF" points="977,1036.9824,987,1040.9824,977,1044.9824,981,1040.9824" style="stroke:#00BFFF;stroke-width:1.0;"/><line style="stroke:#00BFFF;stroke-width:1.0;" x1="662" x2="983" y1="1040.9824" y2="1040.9824"/><text fill="#000000" font-family="sans-serif" font-size="13" lengthAdjust="spacing" textLength="172" x="669" y="1036.2402">forwardCCcen(rhsComplex)</text><polygon fill="#00BFFF" points="673,1066.293,663,1070.293,673,1074.293,669,1070.293" style="stroke:#00BFFF;stroke-width:1.0;"/><line style="stroke:#00BFFF;stroke-width:1.0;stroke-dasharray:2.0,2.0;" x1="667" x2="993" y1="1070.293" y2="1070.293"/><text fill="#000000" font-family="sans-serif" font-size="13" lengthAdjust="spacing" textLength="186" x="679" y="1065.5508">Vorticity in frequency domain</text><polygon fill="#00BFFF" points="977,1095.6035,987,1099.6035,977,1103.6035,981,1099.6035" style="stroke:#00BFFF;stroke-width:1.0;"/><line style="stroke:#00BFFF;stroke-width:1.0;" x1="662" x2="983" y1="1099.6035" y2="1099.6035"/><text fill="#000000" font-family="sans-serif" font-size="13" lengthAdjust="spacing" textLength="191" x="669" y="1094.8613">forwardCCcen(kernelComplex)</text><polygon fill="#00BFFF" points="673,1124.9141,663,1128.9141,673,1132.9141,669,1128.9141" style="stroke:#00BFFF;stroke-width:1.0;"/><line style="stroke:#00BFFF;stroke-width:1.0;stroke-dasharray:2.0,2.0;" x1="667" x2="993" y1="1128.9141" y2="1128.9141"/><text fill="#000000" font-family="sans-serif" font-size="13" lengthAdjust="spacing" textLength="172" x="679" y="1124.1719">Kernel in frequency domain</text><line style="stroke:#00BFFF;stroke-width:1.0;" x1="662" x2="704" y1="1158.2246" y2="1158.2246"/><line style="stroke:#00BFFF;stroke-width:1.0;" x1="704" x2="704" y1="1158.2246" y2="1171.2246"/><line style="stroke:#00BFFF;stroke-width:1.0;" x1="663" x2="704" y1="1171.2246" y2="1171.2246"/><polygon fill="#00BFFF" points="673,1167.2246,663,1171.2246,673,1175.2246,669,1171.2246" style="stroke:#00BFFF;stroke-width:1.0;"/><text fill="#000000" font-family="sans-serif" font-size="13" lengthAdjust="spacing" textLength="226" x="669" y="1153.4824">Multiply arrays in frequency domain</text><path d="M667,1184.2246 L667,1224.2246 L917,1224.2246 L917,1194.2246 L907,1184.2246 L667,1184.2246 " fill="#FEFFDD" style="stroke:#181818;stroke-width:0.5;"/><path d="M907,1184.2246 L907,1194.2246 L917,1194.2246 L907,1184.2246 " fill="#FEFFDD" style="stroke:#181818;stroke-width:0.5;"/><text fill="#000000" font-family="sans-serif" font-size="13" lengthAdjust="spacing" textLength="229" x="673" y="1201.793">Convolution becomes multiplication</text><text fill="#000000" font-family="sans-serif" font-size="13" lengthAdjust="spacing" textLength="129" x="673" y="1217.1035">in frequency domain</text><polygon fill="#00BFFF" points="977,1247.1563,987,1251.1563,977,1255.1563,981,1251.1563" style="stroke:#00BFFF;stroke-width:1.0;"/><line style="stroke:#00BFFF;stroke-width:1.0;" x1="662" x2="983" y1="1251.1563" y2="1251.1563"/><text fill="#000000" font-family="sans-serif" font-size="13" lengthAdjust="spacing" textLength="169" x="669" y="1246.4141">inverseCCcen(rhsComplex)</text><polygon fill="#00BFFF" points="673,1276.4668,663,1280.4668,673,1284.4668,669,1280.4668" style="stroke:#00BFFF;stroke-width:1.0;"/><line style="stroke:#00BFFF;stroke-width:1.0;stroke-dasharray:2.0,2.0;" x1="667" x2="993" y1="1280.4668" y2="1280.4668"/><text fill="#000000" font-family="sans-serif" font-size="13" lengthAdjust="spacing" textLength="155" x="679" y="1275.7246">Return to spatial domain</text><polygon fill="#00BFFF" points="1068.5,1305.7773,1078.5,1309.7773,1068.5,1313.7773,1072.5,1309.7773" style="stroke:#00BFFF;stroke-width:1.0;"/><line style="stroke:#00BFFF;stroke-width:1.0;" x1="662" x2="1074.5" y1="1309.7773" y2="1309.7773"/><text fill="#000000" font-family="sans-serif" font-size="13" lengthAdjust="spacing" textLength="254" x="669" y="1305.0352">Extract &amp; scale result to stream function</text><polygon fill="#00BFFF" points="673,1335.0879,663,1339.0879,673,1343.0879,669,1339.0879" style="stroke:#00BFFF;stroke-width:1.0;"/><line style="stroke:#00BFFF;stroke-width:1.0;stroke-dasharray:2.0,2.0;" x1="667" x2="1084.5" y1="1339.0879" y2="1339.0879"/><text fill="#000000" font-family="sans-serif" font-size="13" lengthAdjust="spacing" textLength="81" x="679" y="1334.3457">Updated grid</text><polygon fill="#00BFFF" points="286.5,1364.3984,276.5,1368.3984,286.5,1372.3984,282.5,1368.3984" style="stroke:#00BFFF;stroke-width:1.0;"/><line style="stroke:#00BFFF;stroke-width:1.0;stroke-dasharray:2.0,2.0;" x1="280.5" x2="656" y1="1368.3984" y2="1368.3984"/><text fill="#000000" font-family="sans-serif" font-size="13" lengthAdjust="spacing" textLength="316" x="292.5" y="1363.6563">Return stream function (psi_grid updated in place)</text><path d="M165,1381.3984 L165,1406.3984 L375,1406.3984 L375,1391.3984 L365,1381.3984 L165,1381.3984 " fill="#FCE4D6" style="stroke:#181818;stroke-width:0.5;"/><path d="M365,1381.3984 L365,1391.3984 L375,1391.3984 L365,1381.3984 " fill="#FCE4D6" style="stroke:#181818;stroke-width:0.5;"/><text fill="#000000" font-family="sans-serif" font-size="13" lengthAdjust="spacing" textLength="189" x="171" y="1398.9668">Step 3: Compute velocity field</text><line style="stroke:#00BFFF;stroke-width:1.0;" x1="275.5" x2="317.5" y1="1433.0195" y2="1433.0195"/><line style="stroke:#00BFFF;stroke-width:1.0;" x1="317.5" x2="317.5" y1="1433.0195" y2="1446.0195"/><line style="stroke:#00BFFF;stroke-width:1.0;" x1="276.5" x2="317.5" y1="1446.0195" y2="1446.0195"/><polygon fill="#00BFFF" points="286.5,1442.0195,276.5,1446.0195,286.5,1450.0195,282.5,1446.0195" style="stroke:#00BFFF;stroke-width:1.0;"/><text fill="#000000" font-family="sans-serif" font-size="13" lengthAdjust="spacing" textLength="274" x="282.5" y="1428.2773">Create interior domain for finite differences</text><path d="M196,1461.0195 L270,1461.0195 L270,1468.3301 L260,1478.3301 L196,1478.3301 L196,1461.0195 " fill="#EEEEEE" style="stroke:#000000;stroke-width:1.5;"/><rect fill="none" height="219.8633" style="stroke:#000000;stroke-width:1.5;" width="950.5" x="196" y="1461.0195"/><text fill="#000000" font-family="sans-serif" font-size="13" font-weight="bold" lengthAdjust="spacing" textLength="29" x="211" y="1474.5879">loop</text><text fill="#000000" font-family="sans-serif" font-size="11" font-weight="bold" lengthAdjust="spacing" textLength="222" x="285" y="1473.6543">[For each grid point in interior domain]</text><polygon fill="#00BFFF" points="1068.5,1495.6406,1078.5,1499.6406,1068.5,1503.6406,1072.5,1499.6406" style="stroke:#00BFFF;stroke-width:1.0;"/><line style="stroke:#00BFFF;stroke-width:1.0;" x1="275.5" x2="1074.5" y1="1499.6406" y2="1499.6406"/><text fill="#000000" font-family="sans-serif" font-size="13" lengthAdjust="spacing" textLength="272" x="282.5" y="1494.8984">Access neighboring stream function values</text><polygon fill="#00BFFF" points="286.5,1524.9512,276.5,1528.9512,286.5,1532.9512,282.5,1528.9512" style="stroke:#00BFFF;stroke-width:1.0;"/><line style="stroke:#00BFFF;stroke-width:1.0;stroke-dasharray:2.0,2.0;" x1="280.5" x2="1084.5" y1="1528.9512" y2="1528.9512"/><text fill="#000000" font-family="sans-serif" font-size="13" lengthAdjust="spacing" textLength="144" x="292.5" y="1524.209">Stream function values</text><line style="stroke:#00BFFF;stroke-width:1.0;" x1="275.5" x2="317.5" y1="1558.2617" y2="1558.2617"/><line style="stroke:#00BFFF;stroke-width:1.0;" x1="317.5" x2="317.5" y1="1558.2617" y2="1571.2617"/><line style="stroke:#00BFFF;stroke-width:1.0;" x1="276.5" x2="317.5" y1="1571.2617" y2="1571.2617"/><polygon fill="#00BFFF" points="286.5,1567.2617,276.5,1571.2617,286.5,1575.2617,282.5,1571.2617" style="stroke:#00BFFF;stroke-width:1.0;"/><text fill="#000000" font-family="sans-serif" font-size="13" lengthAdjust="spacing" textLength="208" x="282.5" y="1553.5195">U[i,j].x = (&#968;[i,j+1] - &#968;[i,j-1])/(2h)</text><line style="stroke:#00BFFF;stroke-width:1.0;" x1="275.5" x2="317.5" y1="1600.5723" y2="1600.5723"/><line style="stroke:#00BFFF;stroke-width:1.0;" x1="317.5" x2="317.5" y1="1600.5723" y2="1613.5723"/><line style="stroke:#00BFFF;stroke-width:1.0;" x1="276.5" x2="317.5" y1="1613.5723" y2="1613.5723"/><polygon fill="#00BFFF" points="286.5,1609.5723,276.5,1613.5723,286.5,1617.5723,282.5,1613.5723" style="stroke:#00BFFF;stroke-width:1.0;"/><text fill="#000000" font-family="sans-serif" font-size="13" lengthAdjust="spacing" textLength="215" x="282.5" y="1595.8301">U[i,j].y = -(&#968;[i+1,j] - &#968;[i-1,j])/(2h)</text><polygon fill="#00BFFF" points="1068.5,1638.8828,1078.5,1642.8828,1068.5,1646.8828,1072.5,1642.8828" style="stroke:#00BFFF;stroke-width:1.0;"/><line style="stroke:#00BFFF;stroke-width:1.0;" x1="275.5" x2="1074.5" y1="1642.8828" y2="1642.8828"/><text fill="#000000" font-family="sans-serif" font-size="13" lengthAdjust="spacing" textLength="228" x="282.5" y="1638.1406">Store velocity components in U_grid</text><path d="M133,1692.8828 L133,1717.8828 L408,1717.8828 L408,1702.8828 L398,1692.8828 L133,1692.8828 " fill="#FCE4D6" style="stroke:#181818;stroke-width:0.5;"/><path d="M398,1692.8828 L398,1702.8828 L408,1702.8828 L398,1692.8828 " fill="#FCE4D6" style="stroke:#181818;stroke-width:0.5;"/><text fill="#000000" font-family="sans-serif" font-size="13" lengthAdjust="spacing" textLength="254" x="139" y="1710.4512">Step 4: Interpolate velocities to particles</text><path d="M196,1730.1934 L270,1730.1934 L270,1737.5039 L260,1747.5039 L196,1747.5039 L196,1730.1934 " fill="#EEEEEE" style="stroke:#000000;stroke-width:1.5;"/><rect fill="none" height="303.7949" style="stroke:#000000;stroke-width:1.5;" width="950.5" x="196" y="1730.1934"/><text fill="#000000" font-family="sans-serif" font-size="13" font-weight="bold" lengthAdjust="spacing" textLength="29" x="211" y="1743.7617">loop</text><text fill="#000000" font-family="sans-serif" font-size="11" font-weight="bold" lengthAdjust="spacing" textLength="112" x="285" y="1742.8281">[For each particle k]</text><polygon fill="#00BFFF" points="551.5,1764.8145,561.5,1768.8145,551.5,1772.8145,555.5,1768.8145" style="stroke:#00BFFF;stroke-width:1.0;"/><line style="stroke:#00BFFF;stroke-width:1.0;" x1="275.5" x2="557.5" y1="1768.8145" y2="1768.8145"/><text fill="#000000" font-family="sans-serif" font-size="13" lengthAdjust="spacing" textLength="82" x="282.5" y="1764.0723">getParticle(k)</text><polygon fill="#00BFFF" points="286.5,1794.125,276.5,1798.125,286.5,1802.125,282.5,1798.125" style="stroke:#00BFFF;stroke-width:1.0;"/><line style="stroke:#00BFFF;stroke-width:1.0;stroke-dasharray:2.0,2.0;" x1="280.5" x2="567.5" y1="1798.125" y2="1798.125"/><text fill="#000000" font-family="sans-serif" font-size="13" lengthAdjust="spacing" textLength="133" x="292.5" y="1793.3828">Particle with position</text><line style="stroke:#00BFFF;stroke-width:1.0;" x1="275.5" x2="317.5" y1="1827.4355" y2="1827.4355"/><line style="stroke:#00BFFF;stroke-width:1.0;" x1="317.5" x2="317.5" y1="1827.4355" y2="1840.4355"/><line style="stroke:#00BFFF;stroke-width:1.0;" x1="276.5" x2="317.5" y1="1840.4355" y2="1840.4355"/><polygon fill="#00BFFF" points="286.5,1836.4355,276.5,1840.4355,286.5,1844.4355,282.5,1840.4355" style="stroke:#00BFFF;stroke-width:1.0;"/><text fill="#000000" font-family="sans-serif" font-size="13" lengthAdjust="spacing" textLength="240" x="282.5" y="1822.6934">Transform particle to grid coordinates</text><line style="stroke:#00BFFF;stroke-width:1.0;" x1="275.5" x2="317.5" y1="1869.7461" y2="1869.7461"/><line style="stroke:#00BFFF;stroke-width:1.0;" x1="317.5" x2="317.5" y1="1869.7461" y2="1882.7461"/><line style="stroke:#00BFFF;stroke-width:1.0;" x1="276.5" x2="317.5" y1="1882.7461" y2="1882.7461"/><polygon fill="#00BFFF" points="286.5,1878.7461,276.5,1882.7461,286.5,1886.7461,282.5,1882.7461" style="stroke:#00BFFF;stroke-width:1.0;"/><text fill="#000000" font-family="sans-serif" font-size="13" lengthAdjust="spacing" textLength="196" x="282.5" y="1865.0039">Calculate interpolation weights</text><polygon fill="#00BFFF" points="1068.5,1908.0566,1078.5,1912.0566,1068.5,1916.0566,1072.5,1912.0566" style="stroke:#00BFFF;stroke-width:1.0;"/><line style="stroke:#00BFFF;stroke-width:1.0;" x1="275.5" x2="1074.5" y1="1912.0566" y2="1912.0566"/><text fill="#000000" font-family="sans-serif" font-size="13" lengthAdjust="spacing" textLength="282" x="282.5" y="1907.3145">Access velocity values at surrounding points</text><polygon fill="#00BFFF" points="286.5,1937.3672,276.5,1941.3672,286.5,1945.3672,282.5,1941.3672" style="stroke:#00BFFF;stroke-width:1.0;"/><line style="stroke:#00BFFF;stroke-width:1.0;stroke-dasharray:2.0,2.0;" x1="280.5" x2="1084.5" y1="1941.3672" y2="1941.3672"/><text fill="#000000" font-family="sans-serif" font-size="13" lengthAdjust="spacing" textLength="175" x="292.5" y="1936.625">Velocity vector components</text><line style="stroke:#00BFFF;stroke-width:1.0;" x1="275.5" x2="317.5" y1="1970.6777" y2="1970.6777"/><line style="stroke:#00BFFF;stroke-width:1.0;" x1="317.5" x2="317.5" y1="1970.6777" y2="1983.6777"/><line style="stroke:#00BFFF;stroke-width:1.0;" x1="276.5" x2="317.5" y1="1983.6777" y2="1983.6777"/><polygon fill="#00BFFF" points="286.5,1979.6777,276.5,1983.6777,286.5,1987.6777,282.5,1983.6777" style="stroke:#00BFFF;stroke-width:1.0;"/><text fill="#000000" font-family="sans-serif" font-size="13" lengthAdjust="spacing" textLength="245" x="282.5" y="1965.9355">Interpolate velocity to particle position</text><line style="stroke:#00BFFF;stroke-width:1.0;" x1="275.5" x2="317.5" y1="2012.9883" y2="2012.9883"/><line style="stroke:#00BFFF;stroke-width:1.0;" x1="317.5" x2="317.5" y1="2012.9883" y2="2025.9883"/><line style="stroke:#00BFFF;stroke-width:1.0;" x1="276.5" x2="317.5" y1="2025.9883" y2="2025.9883"/><polygon fill="#00BFFF" points="286.5,2021.9883,276.5,2025.9883,286.5,2029.9883,282.5,2025.9883" style="stroke:#00BFFF;stroke-width:1.0;"/><text fill="#000000" font-family="sans-serif" font-size="13" lengthAdjust="spacing" textLength="223" x="282.5" y="2008.2461">a_k.getShift(k).m_x[d] = dt * U_k[d]</text><polygon fill="#00BFFF" points="36.5,2058.2988,26.5,2062.2988,36.5,2066.2988,32.5,2062.2988" style="stroke:#00BFFF;stroke-width:1.0;"/><line style="stroke:#00BFFF;stroke-width:1.0;stroke-dasharray:2.0,2.0;" x1="30.5" x2="269.5" y1="2062.2988" y2="2062.2988"/><text fill="#000000" font-family="sans-serif" font-size="13" lengthAdjust="spacing" textLength="174" x="42.5" y="2057.5566">Return particle shifts in a_k</text><!--SRC=[pLVRZXf747sVhoZPKWpnilPU4Yb8iOHX2IkCj08lVh1MgzwP0ZeCtUFkXbqIHNBobFn7FY7V4V-3loJLtNDVGCv3fF30NAggwtRgCi_WMYCmk4DZK44eOwb0XmjSqLiHWJRRc8jve9TS94on5MZyi4OH8lmS0FqwIidxhXFh8IQJvVPrl4PF2erKhwMAKErcUCDd-8OBBFFSFIAoS3bNSYqYp_2qyrsls-ix7lTtnPJX8K-OC8UKbTdgH_Ow5nVzipfRNmgJCfovNw7JktRW6CVm-81VWk0PMJOZlu35CII5DXsK7k39U7Z-19Y6yR3wtjiNunHZ6NB3KJksg-bkjWaQJvzKwGCPBWLk7MrG9NMbs0nH2OmTjLipeDz_E-evIdzKCnb3C-eH89W_TzontauCyO1P8DnBjPp5yXxkkLcGO-UWkGKIDn1ICBHZIbB3OPCx61XkwCLKAeCFa7a68pGB6RKXZSGMkdALh0qpN0hu2guarvhk9ZBU48BXNQQzySwgxroIYPfhOx7S38Bn45glA8nja0agHjbhiDlb4R1RmrTehv6n_veK43yB3T_GdGsySn8JE6d3fI2BMSn_GfWh7cbNGyn6H0T24hlSK9LPBQ4p5djS9p4BgTo4kHIXSZV1rTGPCsd37CsWKLOt2Qucq4fDNGGHbacfuBZJXgv2-t8ZNOBCzeXAcLwjOBOMOHgYJHOvPskXX18txkHAv0hdxDQo746YUNftxQvb_LcwAHAdRG9v8ZLbjiXdPWaOwHHM0W9F-zsByzwtxJoKsG6FvGedDPefYnilZrysAzRNh8gbJA1FPKYl5uL5I-0YowYl_NBOCvmrbar7BCVPCHTfo27fWEtCjW7s_LEXc9k54wacgsXWqmnwRnKJUYRLgZ0oTPhmGhsD2vBLDQ4kYyDrR0_bWdfu8cDV0lV8vmkZ2pqktig-13cpm8NqrqcIU0jtd3ezChNxc7REtJXfwS-_VMpwwwzDGXOz5ayPtJvwchrpuaWHiLRKVRUvx4HHgWkZmlqiVdaS4ib5wbGvnxNmqXlIbUFnhEtQ0EPDWMQOy-uG1a_t2XKuwOGXQWshsuNlf_iATOnchGIaNPSYJA2ZlhExV0UsEuYDrTqeYg-4y44G35B63JMRYDvT2kecFRbYN52xoAYXQm8N3zIV8umUaHE556YqVJF61zUuDP4zlJjqPU0dGMFfBYdd4InArj20AA983pOLQVVvGI6APphlEHv4iMYevelpJn-1e0uANi7VVtamo7Whv8eQQ4hv_CUVbfR3fZjq4INJ-poE2IVUBDzXoy4aCxmN_L7RddNFLDJjXaYQ5phrekG2JRB-A3jwcZSSQWypvTUTBKGkUcKb9BL7IILQ-_Juo7wn4f8OhMF3RQdwYR9Jj5ha0vyDXwQrA-SxfCc315b_5Wyzf2tRhkFoq1UUSa69rlYbuKoXJ_Mh4sQ7uo4dRIEuU32AA3IVDAq5v0ngijKTK9rWkmOMARnER454i6i-3UeLMH-AZMp2mJezXgBY9dIpVDOWRotdxNJlm6ASpZZ61yVRsLwXKblt9UIQCQTgy55pXK7h8oTIn6SpL7P_qVKPLxHAQt_jZ7hZzJrCsDvx9vNTbUfHeIwpnjrDjxGeJFPBLTEmO_9Tl-T7FzuSFy3tqFZqktruVd83BV3thPERvel6wQAvMsfBKYqdzlo4dbEnbhqlYTNSdj2ALmg_tSUaeENBbLMwtVoxAVEDtV-oqLbUOE6ElXGiWBEnfW-1utplCPKJzYqr_y4cytzONXxXDS-SXnam0tgjtEUOXV21FQ44sVpROOFsWws4WY-3xOv4RSjfgeQmaADFYsFAp6J1PuRIShowVNWVtH2C8mDV4_gMzEInPMMiuyEyPHMxaPNMVebTLbQ9QV0F]--></g></svg>